<svg width="113" height="113" viewBox="0 0 113 113" fill="none" xmlns="http://www.w3.org/2000/svg">
<rect width="113" height="113" rx="50" transform="matrix(-1 0 0 1 113 0)" fill="#FF7A01" fill-opacity="0.25"/>
<path d="M36.5 59C35.1193 59 34 57.8807 34 56.5C34 55.1193 35.1193 54 36.5 54V59ZM78.2678 54.7322C79.2441 55.7085 79.2441 57.2915 78.2678 58.2678L62.3579 74.1777C61.3816 75.154 59.7986 75.154 58.8223 74.1777C57.846 73.2014 57.846 71.6184 58.8223 70.6421L72.9645 56.5L58.8223 42.3579C57.846 41.3816 57.846 39.7986 58.8223 38.8223C59.7986 37.846 61.3816 37.846 62.3579 38.8223L78.2678 54.7322ZM36.5 56.5V54H76.5V56.5V59H36.5V56.5Z" fill="#FE6813"/>
</svg>
