<svg width="46" height="46" viewBox="0 0 46 46" fill="none" xmlns="http://www.w3.org/2000/svg">
<path d="M3.23223 39.2322C2.25592 40.2085 2.25592 41.7915 3.23223 42.7678C4.20854 43.7441 5.79146 43.7441 6.76777 42.7678L3.23223 39.2322ZM43.5 5C43.5 3.61929 42.3807 2.5 41 2.5L18.5 2.5C17.1193 2.5 16 3.61929 16 5C16 6.38071 17.1193 7.5 18.5 7.5H38.5V27.5C38.5 28.8807 39.6193 30 41 30C42.3807 30 43.5 28.8807 43.5 27.5L43.5 5ZM5 41L6.76777 42.7678L42.7678 6.76777L41 5L39.2322 3.23223L3.23223 39.2322L5 41Z" fill="#FE6813"/>
</svg>
