<svg width="113" height="113" viewBox="0 0 113 113" fill="none" xmlns="http://www.w3.org/2000/svg">
<rect width="113" height="113" rx="50" fill="#E76395" fill-opacity="0.25"/>
<path d="M76.5 59C77.8807 59 79 57.8807 79 56.5C79 55.1193 77.8807 54 76.5 54V59ZM34.7322 54.7322C33.7559 55.7085 33.7559 57.2915 34.7322 58.2678L50.6421 74.1777C51.6184 75.154 53.2014 75.154 54.1777 74.1777C55.154 73.2014 55.154 71.6184 54.1777 70.6421L40.0355 56.5L54.1777 42.3579C55.154 41.3816 55.154 39.7986 54.1777 38.8223C53.2014 37.846 51.6184 37.846 50.6421 38.8223L34.7322 54.7322ZM76.5 56.5V54H36.5V56.5V59H76.5V56.5Z" fill="#E76395"/>
</svg>
