<svg width="80" height="81" viewBox="0 0 80 81" fill="none" xmlns="http://www.w3.org/2000/svg">
<rect width="80" height="80" rx="30" transform="matrix(-1 0 0 1 80 0.5)" fill="#BC2141 "/>
<path d="M20 43C18.6193 43 17.5 41.8807 17.5 40.5C17.5 39.1193 18.6193 38 20 38V43ZM61.7678 38.7322C62.7441 39.7085 62.7441 41.2915 61.7678 42.2678L45.8579 58.1777C44.8816 59.154 43.2986 59.154 42.3223 58.1777C41.346 57.2014 41.346 55.6184 42.3223 54.6421L56.4645 40.5L42.3223 26.3579C41.346 25.3816 41.346 23.7986 42.3223 22.8223C43.2986 21.846 44.8816 21.846 45.8579 22.8223L61.7678 38.7322ZM20 40.5V38H60V40.5V43H20V40.5Z" fill="white"/>
</svg>
