<svg width="95" height="95" viewBox="0 0 95 95" fill="none" xmlns="http://www.w3.org/2000/svg">
<rect width="95" height="95" rx="47.5" fill="#BC2141"/>
<path d="M31.5916 59.8748C30.6153 60.8511 30.6153 62.434 31.5916 63.4103C32.5679 64.3867 34.1508 64.3867 35.1271 63.4103L31.5916 59.8748ZM64.1436 33.3583C64.1436 31.9776 63.0244 30.8583 61.6436 30.8583H39.1436C37.7629 30.8583 36.6436 31.9776 36.6436 33.3583C36.6436 34.739 37.7629 35.8583 39.1436 35.8583H59.1436V55.8583C59.1436 57.239 60.2629 58.3583 61.6436 58.3583C63.0244 58.3583 64.1436 57.239 64.1436 55.8583V33.3583ZM33.3594 61.6426L35.1271 63.4103L63.4114 35.1261L61.6436 33.3583L59.8759 31.5905L31.5916 59.8748L33.3594 61.6426Z" fill="white"/>
</svg>
