<svg width="69" height="69" viewBox="0 0 69 69" fill="none" xmlns="http://www.w3.org/2000/svg">
<rect x="0.714844" width="68.2843" height="68.2843" rx="34.1421" fill="#BC2141" fill-opacity="0.25"/>
<path d="M18.9471 46.5174C17.9708 47.4937 17.9708 49.0766 18.9471 50.0529C19.9234 51.0292 21.5063 51.0292 22.4826 50.0529L18.9471 46.5174ZM51.4991 20.0009C51.4991 18.6202 50.3798 17.5009 48.9991 17.5009H26.4991C25.1184 17.5009 23.9991 18.6202 23.9991 20.0009C23.9991 21.3816 25.1184 22.5009 26.4991 22.5009H46.4991V42.5009C46.4991 43.8816 47.6184 45.0009 48.9991 45.0009C50.3798 45.0009 51.4991 43.8816 51.4991 42.5009V20.0009ZM20.7148 48.2852L22.4826 50.0529L50.7669 21.7687L48.9991 20.0009L47.2313 18.2331L18.9471 46.5174L20.7148 48.2852Z" fill="#BC2141"/>
</svg>
