<svg width="80" height="81" viewBox="0 0 80 81" fill="none" xmlns="http://www.w3.org/2000/svg">
<rect y="0.5" width="80" height="80" rx="30" fill="#E76395"/>
<path d="M60 43C61.3807 43 62.5 41.8807 62.5 40.5C62.5 39.1193 61.3807 38 60 38V43ZM18.2322 38.7322C17.2559 39.7085 17.2559 41.2915 18.2322 42.2678L34.1421 58.1777C35.1184 59.154 36.7014 59.154 37.6777 58.1777C38.654 57.2014 38.654 55.6184 37.6777 54.6421L23.5355 40.5L37.6777 26.3579C38.654 25.3816 38.654 23.7986 37.6777 22.8223C36.7014 21.846 35.1184 21.846 34.1421 22.8223L18.2322 38.7322ZM60 40.5V38H20V40.5V43H60V40.5Z" fill="white"/>
</svg>
