<svg width="150" height="150" viewBox="0 0 150 150" fill="none" xmlns="http://www.w3.org/2000/svg">
<rect width="150" height="150" rx="10" fill="#E76395" fill-opacity="0.25"/>
<path d="M20 75H40.625M40.625 75V21C40.625 20.4477 41.0727 20 41.625 20H60.25C60.8023 20 61.25 20.4477 61.25 21V75M40.625 75V129C40.625 129.552 41.0727 130 41.625 130H60.25C60.8023 130 61.25 129.552 61.25 129V75M61.25 75H88.75M88.75 75V39.3333C88.75 38.781 89.1977 38.3333 89.75 38.3333H108.375C108.927 38.3333 109.375 38.7811 109.375 39.3333V75M88.75 75V110.667C88.75 111.219 89.1977 111.667 89.75 111.667H108.375C108.927 111.667 109.375 111.219 109.375 110.667V75M109.375 75H130" stroke="#E76395" stroke-width="7" stroke-linecap="round" stroke-linejoin="round"/>
</svg>
