<svg width="55" height="55" viewBox="0 0 55 55" fill="none" xmlns="http://www.w3.org/2000/svg">
<path d="M18.332 11.459C18.332 15.2559 15.254 18.334 11.457 18.334C7.66007 18.334 4.58203 15.2559 4.58203 11.459C4.58203 7.66203 7.66007 4.58398 11.457 4.58398C15.254 4.58398 18.332 7.66203 18.332 11.459Z" stroke="#E76395" stroke-width="1.5"/>
<path d="M50.418 11.459C50.418 15.2559 47.3399 18.334 43.543 18.334C39.746 18.334 36.668 15.2559 36.668 11.459C36.668 7.66203 39.746 4.58398 43.543 4.58398C47.3399 4.58398 50.418 7.66203 50.418 11.459Z" stroke="#E76395" stroke-width="1.5"/>
<path d="M18.332 43.541C18.332 47.338 15.254 50.416 11.457 50.416C7.66007 50.416 4.58203 47.338 4.58203 43.541C4.58203 39.7441 7.66007 36.666 11.457 36.666C15.254 36.666 18.332 39.7441 18.332 43.541Z" stroke="#E76395" stroke-width="1.5"/>
<path d="M50.418 43.541C50.418 47.338 47.3399 50.416 43.543 50.416C39.746 50.416 36.668 47.338 36.668 43.541C36.668 39.7441 39.746 36.666 43.543 36.666C47.3399 36.666 50.418 39.7441 50.418 43.541Z" stroke="#E76395" stroke-width="1.5"/>
<path d="M18.332 11.459H36.6654" stroke="#E76395" stroke-width="1.5" stroke-linecap="round"/>
<path d="M43.543 36.666L43.543 29.791M43.543 18.3327L43.543 20.6243" stroke="#E76395" stroke-width="1.5" stroke-linecap="round"/>
<path d="M36.6654 43.541L29.7904 43.541M22.9154 43.541L18.332 43.541" stroke="#E76395" stroke-width="1.5" stroke-linecap="round"/>
<path d="M11.457 36.666L11.457 18.3327" stroke="#E76395" stroke-width="1.5" stroke-linecap="round"/>
</svg>
