<svg width="33" height="22" viewBox="0 0 33 22" fill="none" xmlns="http://www.w3.org/2000/svg">
<g clip-path="url(#clip0_383_62306)">
<path d="M0 0H33V22H0V0Z" fill="white"/>
<path d="M0 0H33V1.69181H0V0ZM0 3.38363H33V5.07544H0V3.38363ZM0 6.76725H33V8.45906H0V6.76725ZM0 10.1509H33V11.8427H0V10.1509ZM0 13.5409H33V15.2327H0V13.5409ZM0 16.9246H33V18.6164H0V16.9246ZM0 20.3082H33V22H0V20.3082Z" fill="#D80027"/>
<path d="M0 0H16.5V11.8427H0V0Z" fill="#2E52B2"/>
<path d="M3.07307 8.93604L2.81576 8.11265L2.53272 8.93604H1.68359L2.3719 9.43137L2.11459 10.2548L2.81576 9.74657L3.49763 10.2548L3.23389 9.43137L3.93506 8.93604H3.07307ZM6.6947 8.93604L6.43096 8.11265L6.16079 8.93604H5.31166L5.99997 9.43137L5.74266 10.2548L6.43096 9.74657L7.1257 10.2548L6.86839 9.43137L7.55669 8.93604H6.6947ZM10.3292 8.93604L10.0526 8.11265L9.79529 8.93604H8.92687L9.63447 9.43137L9.3643 10.2548L10.0526 9.74657L10.7602 10.2548L10.49 9.43137L11.1783 8.93604H10.3292ZM13.9444 8.93604L13.6871 8.11265L13.4169 8.93604H12.5614L13.2561 9.43137L12.9988 10.2548L13.6871 9.74657L14.3818 10.2548L14.1052 9.43137L14.8128 8.93604H13.9444ZM6.43096 4.84482L6.16079 5.66821H5.31166L5.99997 6.17639L5.74266 6.98692L6.43096 6.48517L7.1257 6.98692L6.86839 6.17639L7.55669 5.66821H6.6947L6.43096 4.84482ZM2.81576 4.84482L2.53272 5.66821H1.68359L2.3719 6.17639L2.11459 6.98692L2.81576 6.48517L3.49763 6.98692L3.23389 6.17639L3.93506 5.66821H3.07307L2.81576 4.84482ZM10.0526 4.84482L9.79529 5.66821H8.92687L9.63447 6.17639L9.3643 6.98692L10.0526 6.48517L10.7602 6.98692L10.49 6.17639L11.1783 5.66821H10.3292L10.0526 4.84482ZM13.6871 4.84482L13.4169 5.66821H12.5614L13.2561 6.17639L12.9988 6.98692L13.6871 6.48517L14.3818 6.98692L14.1052 6.17639L14.8128 5.66821H13.9444L13.6871 4.84482ZM2.81576 1.58984L2.53272 2.40037H1.68359L2.3719 2.90856L2.11459 3.72552L2.81576 3.21733L3.49763 3.72552L3.23389 2.90856L3.93506 2.40037H3.07307L2.81576 1.58984ZM6.43096 1.58984L6.16079 2.40037H5.31166L5.99997 2.90856L5.74266 3.72552L6.43096 3.21733L7.1257 3.72552L6.86839 2.90856L7.55669 2.40037H6.6947L6.43096 1.58984ZM10.0526 1.58984L9.79529 2.40037H8.92687L9.63447 2.90856L9.3643 3.72552L10.0526 3.21733L10.7602 3.72552L10.49 2.90856L11.1783 2.40037H10.3292L10.0526 1.58984ZM13.6871 1.58984L13.4169 2.40037H12.5614L13.2561 2.90856L12.9988 3.72552L13.6871 3.21733L14.3818 3.72552L14.1052 2.90856L14.8128 2.40037H13.9444L13.6871 1.58984Z" fill="white"/>
</g>
<defs>
<clipPath id="clip0_383_62306">
<rect width="33" height="22" rx="3" fill="white"/>
</clipPath>
</defs>
</svg>
