<svg width="55" height="55" viewBox="0 0 55 55" fill="none" xmlns="http://www.w3.org/2000/svg">
<path d="M50.4154 34.375C50.4154 43.0174 50.4154 45.047 47.7305 47.7318C45.0457 50.4167 40.7244 50.4167 32.082 50.4167" stroke="#FF7A01" stroke-width="1.5" stroke-linecap="round"/>
<path d="M22.9154 4.58398C14.2729 4.58398 9.95174 4.58398 7.26689 7.26884C4.58203 9.95369 4.58203 11.9832 4.58203 20.6256" stroke="#FF7A01" stroke-width="1.5" stroke-linecap="round"/>
<path d="M27.4987 16.041C20.7903 16.041 16.2246 19.6211 13.5022 22.779C12.1387 24.3605 11.457 25.1513 11.457 27.4993C11.457 29.8474 12.1387 30.6382 13.5022 32.2197C16.2246 35.3776 20.7903 38.9577 27.4987 38.9577C34.2071 38.9577 38.7728 35.3776 41.4952 32.2197C42.8586 30.6382 43.5404 29.8474 43.5404 27.4993C43.5404 25.1513 42.8587 24.3605 41.4952 22.779C40.2686 21.3562 38.6678 19.8476 36.6654 18.6194" stroke="#FF7A01" stroke-width="1.5" stroke-linecap="round"/>
<circle cx="27.5013" cy="27.4993" r="4.58333" stroke="#FF7A01" stroke-width="1.5"/>
<path d="M22.9154 50.4167C22.1151 50.4167 21.352 50.4167 20.6237 50.4145M4.58203 34.375C4.58203 43.0174 4.58203 45.047 7.26689 47.7318C8.76376 49.2287 10.7693 49.891 13.7487 50.1841" stroke="#FF7A01" stroke-width="1.5" stroke-linecap="round"/>
<path d="M32.0846 4.58333C32.8849 4.58333 33.648 4.58333 34.3763 4.58547M50.418 20.625C50.418 11.9826 50.418 9.95304 47.7331 7.26819C46.2362 5.77132 44.2307 5.10899 41.2513 4.81592" stroke="#FF7A01" stroke-width="1.5" stroke-linecap="round"/>
</svg>
