<svg width="74" height="86" viewBox="0 0 74 86" fill="none" xmlns="http://www.w3.org/2000/svg">
<ellipse cx="37" cy="43" rx="37" ry="43" fill="#A5A097"/>
<path d="M37 11.25C47.9076 11.25 56.75 20.0924 56.75 31C56.75 39.2785 51.7486 47.3874 46.5449 53.5479C43.9647 56.6025 41.3807 59.124 39.4414 60.8818C38.4727 61.7599 37.6668 62.4458 37.1055 62.9102C37.0761 62.9345 37.0466 62.9574 37.0186 62.9805C36.9853 62.9519 36.9502 62.923 36.915 62.8926C36.3525 62.4063 35.5452 61.6909 34.5752 60.7793C32.633 58.9541 30.0457 56.3508 27.4619 53.2402C22.2435 46.958 17.25 38.8529 17.25 31C17.25 20.0924 26.0924 11.25 37 11.25Z" fill="#BC2141 " stroke="#ACACAC" stroke-width="2.5"/>
<circle cx="37.0016" cy="30.9996" r="8.4" fill="#ACACAC"/>
</svg>
