<svg width="124" height="84" viewBox="0 0 124 84" fill="none" xmlns="http://www.w3.org/2000/svg">
<g opacity="0.25">
<path d="M63 -24C54.6875 -16.4339 48.125 -9.11186 43.3125 -2.03389C38.5 5.28815 34.8906 13.2203 32.4844 21.7627L33.1406 21.7627C40.1406 21.7627 46.2656 24.3254 51.5156 29.4509C56.5469 34.5763 59.0625 41.6542 59.0625 50.6847L59.0625 52.1492C59.0625 60.9356 56.5469 68.3797 51.5156 74.4814C46.4844 80.8271 39.1562 84 29.5312 84C19.9062 84 12.5781 80.8271 7.54687 74.4814C2.51562 68.3797 -3.32793e-06 60.9356 -2.63693e-06 52.1491L-2.20506e-06 46.6576C-1.66761e-06 39.8237 0.98438 33.1119 2.95313 26.522C4.70313 19.9322 7.21875 13.5864 10.5 7.48475C13.5625 1.62713 17.0625 -3.98643 21 -9.35593C24.9375 -14.7254 28.9844 -19.6068 33.1406 -24L63 -24Z" fill="#FF7A01"/>
<path d="M124 -24C115.951 -16.4339 109.597 -9.11186 104.938 -2.03389C100.278 5.28815 96.783 13.2203 94.4531 21.7627L95.0885 21.7627C101.866 21.7627 107.797 24.3254 112.88 29.4509C117.752 34.5763 120.188 41.6542 120.188 50.6847L120.188 52.1492C120.188 60.9356 117.752 68.3797 112.88 74.4814C108.009 80.8271 100.913 84 91.5937 84C82.2743 84 75.1788 80.8271 70.3073 74.4814C65.4358 68.3797 63 60.9356 63 52.1491L63 46.6576C63 39.8237 63.9531 33.1119 65.8594 26.522C67.5538 19.9322 69.9896 13.5864 73.1667 7.48475C76.1319 1.62713 79.5208 -3.98643 83.3333 -9.35593C87.1458 -14.7254 91.0642 -19.6068 95.0886 -24L124 -24Z" fill="#FF7A01"/>
</g>
</svg>
