<svg width="97" height="63" viewBox="0 0 97 63" fill="none" xmlns="http://www.w3.org/2000/svg">
<path d="M49 -13C42.5347 -7.6757 37.4306 -2.52316 33.6875 2.45763C29.9444 7.61018 27.1372 13.1921 25.2656 19.2034L25.776 19.2034C31.2205 19.2034 35.9844 21.0068 40.0677 24.6136C43.9809 28.2203 45.9375 33.2011 45.9375 39.5559L45.9375 40.5864C45.9375 46.7695 43.9809 52.0079 40.0677 56.3017C36.1545 60.7672 30.4549 63 22.9687 63C15.4826 63 9.78298 60.7672 5.86979 56.3017C1.95659 52.0079 -4.65878e-06 46.7695 -4.11824e-06 40.5864L-3.7804e-06 36.722C-3.35998e-06 31.913 0.765627 27.1898 2.29688 22.5525C3.65799 17.9153 5.61458 13.4497 8.16667 9.15593C10.5486 5.0339 13.2708 1.08362 16.3333 -2.69491C19.3958 -6.47345 22.5434 -9.90847 25.776 -13L49 -13Z" fill="#FF7A01"/>
<path d="M97 -13C90.6667 -7.6757 85.6667 -2.52316 82 2.45763C78.3333 7.61018 75.5833 13.1921 73.75 19.2034L74.25 19.2034C79.5833 19.2034 84.25 21.0068 88.25 24.6136C92.0833 28.2203 94 33.2011 94 39.5559L94 40.5864C94 46.7695 92.0833 52.0079 88.25 56.3017C84.4167 60.7672 78.8333 63 71.5 63C64.1667 63 58.5833 60.7672 54.75 56.3017C50.9167 52.0079 49 46.7695 49 40.5864L49 36.722C49 31.913 49.75 27.1898 51.25 22.5525C52.5833 17.9153 54.5 13.4497 57 9.15593C59.3333 5.0339 62 1.08362 65 -2.69491C68 -6.47345 71.0833 -9.90847 74.25 -13L97 -13Z" fill="#FF7A01"/>
</svg>
