<svg width="55" height="55" viewBox="0 0 55 55" fill="none" xmlns="http://www.w3.org/2000/svg">
<path d="M5.73047 29.791V40.1035C5.73047 44.4247 5.73047 46.5853 7.0729 47.9278C8.41532 49.2702 10.5759 49.2702 14.8971 49.2702C19.2183 49.2702 21.3789 49.2702 22.7214 47.9278C24.0638 46.5853 24.0638 44.4247 24.0638 40.1035V14.8952C24.0638 10.574 24.0638 8.41337 22.7214 7.07094C21.3789 5.72852 19.2183 5.72852 14.8971 5.72852C10.5759 5.72852 8.41532 5.72852 7.0729 7.07094C5.73047 8.41337 5.73047 10.574 5.73047 14.8952V20.6243" stroke="#FF7A01" stroke-width="1.5" stroke-linecap="round"/>
<path d="M49.2698 41.2493C49.2593 44.8178 49.1465 46.7096 47.9284 47.9278C46.586 49.2702 44.4254 49.2702 40.1042 49.2702C35.783 49.2702 33.6224 49.2702 32.2799 47.9278C30.9375 46.5853 30.9375 44.4247 30.9375 40.1035V35.5202C30.9375 31.199 30.9375 29.0384 32.2799 27.6959C33.6224 26.3535 35.783 26.3535 40.1042 26.3535C44.4254 26.3535 46.586 26.3535 47.9284 27.6959C48.8544 28.622 49.1417 29.9373 49.2308 32.0827" stroke="#FF7A01" stroke-width="1.5" stroke-linecap="round"/>
<path d="M30.9375 12.6035C30.9375 10.468 30.9375 9.40017 31.2864 8.55788C31.7516 7.43484 32.6438 6.54258 33.7669 6.0774C34.6092 5.72852 35.6769 5.72852 37.8125 5.72852H42.3958C44.5314 5.72852 45.5992 5.72852 46.4415 6.0774C47.5645 6.54258 48.4568 7.43484 48.9219 8.55788C49.2708 9.40017 49.2708 10.468 49.2708 12.6035C49.2708 14.7391 49.2708 15.8069 48.9219 16.6491C48.4568 17.7722 47.5645 18.6645 46.4415 19.1296C45.5992 19.4785 44.5314 19.4785 42.3958 19.4785H37.8125C35.6769 19.4785 34.6092 19.4785 33.7669 19.1296C32.6438 18.6645 31.7516 17.7722 31.2864 16.6491C30.9375 15.8069 30.9375 14.7391 30.9375 12.6035Z" stroke="#FF7A01" stroke-width="1.5"/>
</svg>
