<svg width="231" height="232" viewBox="0 0 231 232" fill="none" xmlns="http://www.w3.org/2000/svg">
<path d="M129.247 156.596L51.2321 220.101C39.9767 229.31 23.5743 228.492 13.2911 218.209C3.00782 207.926 2.18974 191.523 11.3987 180.268L74.9038 102.253M94.8051 28.0095C118.466 4.34833 153.717 -0.659014 182.284 12.9875L140.091 55.1808C130.087 65.185 130.087 81.405 140.091 91.4092C150.095 101.413 166.315 101.413 176.319 91.4092L218.513 49.2159C232.159 77.7826 227.152 113.034 203.491 136.695C173.478 166.708 124.818 166.708 94.8051 136.695C64.7924 106.682 64.7925 58.0221 94.8051 28.0095Z" stroke="#BC2141 " stroke-width="10" stroke-linejoin="round"/>
</svg>
