<svg width="80" height="80" viewBox="0 0 80 80" fill="none" xmlns="http://www.w3.org/2000/svg">
<g filter="url(#filter0_d_479_1378)">
<rect x="11.5" y="10.5" width="59" height="59" rx="29.5" stroke="#F4EBDC" shape-rendering="crispEdges"/>
<path d="M41.0022 34.8723C38.1645 34.8723 35.8756 37.1617 35.8756 40C35.8756 42.8383 38.1645 45.1277 41.0022 45.1277C43.8399 45.1277 46.1288 42.8383 46.1288 40C46.1288 37.1617 43.8399 34.8723 41.0022 34.8723ZM41.0022 43.3337C39.1684 43.3337 37.6693 41.8387 37.6693 40C37.6693 38.1613 39.164 36.6663 41.0022 36.6663C42.8405 36.6663 44.3352 38.1613 44.3352 40C44.3352 41.8387 42.836 43.3337 41.0022 43.3337ZM47.5343 34.6625C47.5343 35.3275 46.9989 35.8585 46.3385 35.8585C45.6737 35.8585 45.1428 35.323 45.1428 34.6625C45.1428 34.002 45.6782 33.4665 46.3385 33.4665C46.9989 33.4665 47.5343 34.002 47.5343 34.6625ZM50.9297 35.8764C50.8539 34.2742 50.488 32.8551 49.3146 31.6858C48.1456 30.5166 46.7267 30.1506 45.1249 30.0703C43.4741 29.9766 38.5259 29.9766 36.8751 30.0703C35.2777 30.1462 33.8589 30.5121 32.6854 31.6814C31.512 32.8506 31.1506 34.2698 31.0703 35.8719C30.9766 37.5232 30.9766 42.4724 31.0703 44.1236C31.1461 45.7258 31.512 47.1449 32.6854 48.3142C33.8589 49.4834 35.2733 49.8494 36.8751 49.9297C38.5259 50.0234 43.4741 50.0234 45.1249 49.9297C46.7267 49.8538 48.1456 49.4879 49.3146 48.3142C50.4835 47.1449 50.8494 45.7258 50.9297 44.1236C51.0234 42.4724 51.0234 37.5276 50.9297 35.8764ZM48.797 45.8953C48.449 46.7701 47.7752 47.4439 46.8963 47.7965C45.58 48.3186 42.4568 48.1981 41.0022 48.1981C39.5477 48.1981 36.42 48.3142 35.1082 47.7965C34.2337 47.4484 33.56 46.7745 33.2075 45.8953C32.6854 44.5788 32.8059 41.4549 32.8059 40C32.8059 38.5451 32.6899 35.4167 33.2075 34.1047C33.5555 33.2299 34.2292 32.5561 35.1082 32.2035C36.4244 31.6814 39.5477 31.8019 41.0022 31.8019C42.4568 31.8019 45.5845 31.6858 46.8963 32.2035C47.7708 32.5516 48.4445 33.2255 48.797 34.1047C49.319 35.4212 49.1985 38.5451 49.1985 40C49.1985 41.4549 49.319 44.5833 48.797 45.8953Z" fill="#F4EBDC"/>
</g>
<defs>
<filter id="filter0_d_479_1378" x="0" y="0" width="80" height="80" filterUnits="userSpaceOnUse" color-interpolation-filters="sRGB">
<feFlood flood-opacity="0" result="BackgroundImageFix"/>
<feColorMatrix in="SourceAlpha" type="matrix" values="0 0 0 0 0 0 0 0 0 0 0 0 0 0 0 0 0 0 127 0" result="hardAlpha"/>
<feOffset dx="-1"/>
<feGaussianBlur stdDeviation="5"/>
<feComposite in2="hardAlpha" operator="out"/>
<feColorMatrix type="matrix" values="0 0 0 0 0 0 0 0 0 0 0 0 0 0 0 0 0 0 0.49 0"/>
<feBlend mode="normal" in2="BackgroundImageFix" result="effect1_dropShadow_479_1378"/>
<feBlend mode="normal" in="SourceGraphic" in2="effect1_dropShadow_479_1378" result="shape"/>
</filter>
</defs>
</svg>
