<svg width="80" height="80" viewBox="0 0 80 80" fill="none" xmlns="http://www.w3.org/2000/svg">
<g filter="url(#filter0_d_479_1376)">
<rect x="11.5" y="10.5" width="59" height="59" rx="29.5" stroke="#F4EBDC" shape-rendering="crispEdges"/>
<path d="M33.8571 30C32.2813 30 31 31.2813 31 32.8571V47.1429C31 48.7188 32.2813 50 33.8571 50H38.2411V43.4911H35.8839V40H38.2411V38.4955C38.2411 34.6071 40 32.8036 43.8214 32.8036C44.5446 32.8036 45.7946 32.9464 46.308 33.0893V36.25C46.0402 36.2232 45.5714 36.2054 44.9866 36.2054C43.1116 36.2054 42.3884 36.9152 42.3884 38.7589V40H46.1205L45.4777 43.4911H42.3839V50H48.1429C49.7188 50 51 48.7188 51 47.1429V32.8571C51 31.2813 49.7188 30 48.1429 30H33.8571Z" fill="#F4EBDC"/>
</g>
<defs>
<filter id="filter0_d_479_1376" x="0" y="0" width="80" height="80" filterUnits="userSpaceOnUse" color-interpolation-filters="sRGB">
<feFlood flood-opacity="0" result="BackgroundImageFix"/>
<feColorMatrix in="SourceAlpha" type="matrix" values="0 0 0 0 0 0 0 0 0 0 0 0 0 0 0 0 0 0 127 0" result="hardAlpha"/>
<feOffset dx="-1"/>
<feGaussianBlur stdDeviation="5"/>
<feComposite in2="hardAlpha" operator="out"/>
<feColorMatrix type="matrix" values="0 0 0 0 0 0 0 0 0 0 0 0 0 0 0 0 0 0 0.49 0"/>
<feBlend mode="normal" in2="BackgroundImageFix" result="effect1_dropShadow_479_1376"/>
<feBlend mode="normal" in="SourceGraphic" in2="effect1_dropShadow_479_1376" result="shape"/>
</filter>
</defs>
</svg>
