<svg width="62" height="50" viewBox="0 0 62 50" fill="none" xmlns="http://www.w3.org/2000/svg">
<path d="M44.2487 13.0409C45.3037 12.3455 46.007 12.2585 46.3586 12.7801C46.7103 13.3017 46.4465 13.9972 45.5674 14.8665C37.3915 23.2121 31.3254 27.9065 27.8968 31.8185C26.3144 33.5572 26.7539 35.2958 29.2155 37.0345L45.5674 47.9881C52.1609 52.4217 54.2708 48.7705 55.0621 44.3369C58.0511 28.5151 60.1611 15.3881 61.3918 4.95615C61.9193 1.04415 60.6006 -1.04224 55.5896 0.522555C50.8422 1.91349 33.787 8.95508 4.42389 21.6473C-1.11466 23.7337 -0.0596973 26.0809 3.10519 27.1241C6.27008 28.1673 8.64374 28.9497 11.8086 29.7321C14.9735 30.5145 17.0834 30.7753 20.7758 28.4281" fill="white"/>
</svg>
