<svg width="60" height="60" viewBox="0 0 60 60" fill="none" xmlns="http://www.w3.org/2000/svg">
<rect width="60" height="60" rx="30" fill="#E76395" fill-opacity="0.3"/>
<path d="M30.0022 24.8723C27.1645 24.8723 24.8756 27.1617 24.8756 30C24.8756 32.8383 27.1645 35.1277 30.0022 35.1277C32.8399 35.1277 35.1288 32.8383 35.1288 30C35.1288 27.1617 32.8399 24.8723 30.0022 24.8723ZM30.0022 33.3337C28.1684 33.3337 26.6693 31.8387 26.6693 30C26.6693 28.1613 28.164 26.6663 30.0022 26.6663C31.8405 26.6663 33.3352 28.1613 33.3352 30C33.3352 31.8387 31.836 33.3337 30.0022 33.3337ZM36.5343 24.6625C36.5343 25.3275 35.9989 25.8585 35.3385 25.8585C34.6737 25.8585 34.1428 25.323 34.1428 24.6625C34.1428 24.002 34.6782 23.4665 35.3385 23.4665C35.9989 23.4665 36.5343 24.002 36.5343 24.6625ZM39.9297 25.8764C39.8539 24.2742 39.488 22.8551 38.3146 21.6858C37.1456 20.5166 35.7267 20.1506 34.1249 20.0703C32.4741 19.9766 27.5259 19.9766 25.8751 20.0703C24.2777 20.1462 22.8589 20.5121 21.6854 21.6814C20.512 22.8506 20.1506 24.2698 20.0703 25.8719C19.9766 27.5232 19.9766 32.4724 20.0703 34.1236C20.1461 35.7258 20.512 37.1449 21.6854 38.3142C22.8589 39.4834 24.2733 39.8494 25.8751 39.9297C27.5259 40.0234 32.4741 40.0234 34.1249 39.9297C35.7267 39.8538 37.1456 39.4879 38.3146 38.3142C39.4835 37.1449 39.8494 35.7258 39.9297 34.1236C40.0234 32.4724 40.0234 27.5276 39.9297 25.8764ZM37.797 35.8953C37.449 36.7701 36.7752 37.4439 35.8963 37.7965C34.58 38.3186 31.4568 38.1981 30.0022 38.1981C28.5477 38.1981 25.42 38.3142 24.1082 37.7965C23.2337 37.4484 22.56 36.7745 22.2075 35.8953C21.6854 34.5788 21.8059 31.4549 21.8059 30C21.8059 28.5451 21.6899 25.4167 22.2075 24.1047C22.5555 23.2299 23.2292 22.5561 24.1082 22.2035C25.4244 21.6814 28.5477 21.8019 30.0022 21.8019C31.4568 21.8019 34.5845 21.6858 35.8963 22.2035C36.7708 22.5516 37.4445 23.2255 37.797 24.1047C38.319 25.4212 38.1985 28.5451 38.1985 30C38.1985 31.4549 38.319 34.5833 37.797 35.8953Z" fill="#E76395"/>
</svg>
