<svg width="60" height="60" viewBox="0 0 60 60" fill="none" xmlns="http://www.w3.org/2000/svg">
<rect width="60" height="60" rx="30" fill="#BC2141 " fill-opacity="0.3"/>
<path d="M22.8571 20C21.2813 20 20 21.2813 20 22.8571V37.1429C20 38.7188 21.2813 40 22.8571 40H27.2411V33.4911H24.8839V30H27.2411V28.4955C27.2411 24.6071 29 22.8036 32.8214 22.8036C33.5446 22.8036 34.7946 22.9464 35.308 23.0893V26.25C35.0402 26.2232 34.5714 26.2054 33.9866 26.2054C32.1116 26.2054 31.3884 26.9152 31.3884 28.7589V30H35.1205L34.4777 33.4911H31.3839V40H37.1429C38.7188 40 40 38.7188 40 37.1429V22.8571C40 21.2813 38.7188 20 37.1429 20H22.8571Z" fill="#BC2141 "/>
</svg>
