<svg width="206" height="206" viewBox="0 0 206 206" fill="none" xmlns="http://www.w3.org/2000/svg">
<circle cx="92.5" cy="92.5" r="75" fill="#E76395"/>
<rect x="75.683" y="1.18301" width="149" height="149" rx="74.5" transform="rotate(30 75.683 1.18301)" fill="#2A2A2A"/>
<rect x="75.683" y="1.18301" width="149" height="149" rx="74.5" transform="rotate(30 75.683 1.18301)" stroke="#E76395"/>
<path d="M76.6748 75.4261C72.7517 73.1611 71.067 68.759 73.332 64.8359L80.532 52.3651L83.4938 54.0751L76.2938 66.5459C75.0038 68.7802 76.0535 71.2222 78.3398 72.5422C80.6001 73.8472 83.2138 73.5202 84.5038 71.2859L91.7038 58.8151L94.6915 60.5401L87.4915 73.0109C85.2265 76.934 80.5719 77.6761 76.6748 75.4261ZM93.435 85.1026C89.9276 83.0776 89.0392 79.5163 88.7682 76.8657L91.638 75.8552C91.842 78.5018 92.6238 80.9277 95.04 82.3227C97.0925 83.5077 99.4372 83.4065 100.352 81.8216C101.162 80.4187 100.336 78.7294 97.6096 76.012C95.4085 73.9444 93.8604 70.6258 95.5554 67.69C97.3554 64.5723 101.339 64.0318 104.691 65.9668C107.159 67.3918 108.733 69.825 109.251 72.1679L106.463 73.3983C106.044 71.1824 104.504 69.5308 103.153 68.7508C101.204 67.6258 99.2932 68.1159 98.5282 69.4409C97.7482 70.7919 98.8311 72.4564 100.961 74.5869C103.217 76.8593 105.114 80.4139 103.239 83.6615C101.124 87.3248 96.6306 86.9476 93.435 85.1026ZM103.634 90.6444L114.434 71.9382L127.138 79.2732L125.563 82.0012L115.82 76.3762L112.94 81.3645L122.008 86.5995L120.433 89.3275L111.365 84.0925L108.17 89.6264L117.913 95.2514L116.338 97.9794L103.634 90.6444ZM119.593 99.8583L130.393 81.1521L137.381 85.1871C140.811 87.1671 141.975 91.5111 139.995 94.9405C138.51 97.5126 135.758 98.799 133.062 98.4893L132.505 107.313L129.361 105.498L129.874 97.4109L126.184 95.2809L122.554 101.568L119.593 99.8583ZM127.729 92.6049L131.756 94.9299C133.497 95.9349 135.815 95.1601 136.94 93.2115C138.065 91.263 137.577 88.8681 135.836 87.8631L131.809 85.5381L127.729 92.6049ZM141.362 112.773C137.855 110.748 136.967 107.187 136.696 104.537L139.565 103.526C139.769 106.173 140.551 108.599 142.967 109.994C145.02 111.179 147.365 111.077 148.28 109.493C149.09 108.09 148.264 106.4 145.537 103.683C143.336 101.615 141.788 98.2967 143.483 95.3608C145.283 92.2432 149.267 91.7027 152.618 93.6377C155.086 95.0627 156.661 97.4959 157.179 99.8388L154.39 101.069C153.972 98.8533 152.431 97.2017 151.08 96.4217C149.132 95.2967 147.221 95.7868 146.456 97.1118C145.676 98.4628 146.758 100.127 148.889 102.258C151.145 104.53 153.041 108.085 151.166 111.332C149.051 114.996 144.558 114.618 141.362 112.773Z" fill="#F4EBDC"/>
<path d="M67.8934 113.473C69.5908 114.453 71.3618 114.505 72.3618 112.773C73.5218 110.764 72.0204 109.204 68.972 107.444L67.9674 106.864L70.9274 101.737L71.932 102.317L72.1399 102.437C74.1491 103.597 75.9829 102.901 76.6629 101.723C77.3629 100.511 76.6491 99.2674 75.2288 98.4474C74.0856 97.7874 72.6678 97.5231 70.874 98.1501L70.0923 92.0639C72.8269 91.8876 76.4035 92.0127 79.5212 93.8127C84.0592 96.4327 85.5383 100.751 83.3183 104.596C82.2783 106.397 80.5401 107.888 78.4331 108.657C79.8301 111.358 79.8518 114.28 78.3518 116.878C75.7118 121.451 69.5363 122.227 64.5134 119.327C60.7375 117.147 58.5559 113.486 57.6721 110.296L62.6637 106.851C63.3069 108.377 65.1914 111.913 67.8934 113.473ZM77.9175 126.604L92.3175 101.663L98.8301 105.423L94.2101 113.425L105.55 109.303L113.656 113.983L98.619 119.388L100.746 139.784L93.1249 135.384L91.6967 121.858L88.7101 122.951L84.4301 130.364L77.9175 126.604ZM105.581 139.435L109.401 132.819L102.854 129.039L106.094 123.427L112.641 127.207L116.481 120.556L122.093 123.796L118.253 130.447L124.8 134.227L121.56 139.839L115.013 136.059L111.193 142.675L105.581 139.435Z" fill="#F4EBDC"/>
</svg>
